<svg width="37" height="34" viewBox="0 0 37 34" fill="none" xmlns="http://www.w3.org/2000/svg">
<path d="M18.6598 8.68608C13.5668 8.68608 9.45879 12.4935 9.45879 17.2138C9.45879 21.9341 13.5668 25.7416 18.6598 25.7416C23.7527 25.7416 27.8607 21.9341 27.8607 17.2138C27.8607 12.4935 23.7527 8.68608 18.6598 8.68608ZM18.6598 22.758C15.3686 22.758 12.6779 20.2716 12.6779 17.2138C12.6779 14.156 15.3605 11.6697 18.6598 11.6697C21.959 11.6697 24.6416 14.156 24.6416 17.2138C24.6416 20.2716 21.951 22.758 18.6598 22.758V22.758ZM30.3832 8.33726C30.3832 9.44312 29.4223 10.3263 28.2371 10.3263C27.0439 10.3263 26.091 9.43569 26.091 8.33726C26.091 7.23882 27.052 6.34819 28.2371 6.34819C29.4223 6.34819 30.3832 7.23882 30.3832 8.33726ZM36.4771 10.356C36.341 7.69155 35.6844 5.3314 33.5783 3.38687C31.4803 1.44233 28.9338 0.83374 26.059 0.700146C23.0961 0.544287 14.2154 0.544287 11.2525 0.700146C8.38574 0.826318 5.83926 1.43491 3.7332 3.37944C1.62715 5.32397 0.978516 7.68413 0.834375 10.3486C0.666211 13.0947 0.666211 21.3255 0.834375 24.0716C0.970508 26.7361 1.62715 29.0962 3.7332 31.0408C5.83926 32.9853 8.37773 33.5939 11.2525 33.7275C14.2154 33.8833 23.0961 33.8833 26.059 33.7275C28.9338 33.6013 31.4803 32.9927 33.5783 31.0408C35.6764 29.0962 36.333 26.7361 36.4771 24.0716C36.6453 21.3255 36.6453 13.1021 36.4771 10.356V10.356ZM32.6494 27.0181C32.0248 28.4728 30.8156 29.5935 29.2381 30.1798C26.8758 31.0482 21.2703 30.8478 18.6598 30.8478C16.0492 30.8478 10.4357 31.0408 8.08145 30.1798C6.51191 29.6009 5.30273 28.4802 4.67012 27.0181C3.7332 24.8287 3.94941 19.6333 3.94941 17.2138C3.94941 14.7943 3.74121 9.59155 4.67012 7.40952C5.29473 5.95483 6.50391 4.83413 8.08145 4.2478C10.4437 3.37944 16.0492 3.57983 18.6598 3.57983C21.2703 3.57983 26.8838 3.38686 29.2381 4.2478C30.8076 4.82671 32.0168 5.94741 32.6494 7.40952C33.5863 9.59897 33.3701 14.7943 33.3701 17.2138C33.3701 19.6333 33.5863 24.8361 32.6494 27.0181Z" fill="white"/>
</svg>
