<svg xmlns="http://www.w3.org/2000/svg" viewBox="0 0 837.84 657.18"><defs><style>.cls-1{fill:#fff;}.cls-2{fill:#c02cff;}</style></defs><g id="Camada_2" data-name="Camada 2"><g id="BRANCO"><path class="cls-1" d="M60,146q18.76,0,18.76,18.76V345.13q0,18.76-18.76,18.76H18.76Q0,363.89,0,345.13V164.79Q0,146,18.76,146Z"/><path class="cls-1" d="M60,381.61q18.76,0,18.76,18.76v35.37q0,18.76-18.76,18.76H18.76Q0,454.5,0,435.74V400.37q0-18.76,18.76-18.76Z"/><path class="cls-1" d="M129.64,454.5q-18.76,0-18.76-18.76v-271q0-18.76,18.76-18.76h35.85a26.68,26.68,0,0,1,22.92,12.08l96.3,139.65v-133q0-18.76,18.76-18.76h41.26q18.76,0,18.76,18.76v271q0,18.76-18.76,18.76H308.89A26.7,26.7,0,0,1,286,442.41l-96.29-140.9V435.74q0,18.76-18.76,18.76Z"/><path class="cls-1" d="M344.73,455.39H308.89a27.55,27.55,0,0,1-23.66-12.48L190.56,304.39V435.74c0,13-6.62,19.65-19.65,19.65H129.64c-13,0-19.65-6.61-19.65-19.65v-271c0-13,6.61-19.65,19.65-19.65h35.85a27.56,27.56,0,0,1,23.66,12.47L283.82,294.9V164.79c0-13,6.61-19.65,19.65-19.65h41.26c13,0,19.65,6.61,19.65,19.65v271C364.38,448.78,357.77,455.39,344.73,455.39Zm-156-156.76,97.91,143.28a25.87,25.87,0,0,0,22.2,11.7h35.84c12,0,17.87-5.85,17.87-17.87v-271c0-12-5.84-17.87-17.87-17.87H303.47c-12,0-17.87,5.84-17.87,17.87V300.62l-97.92-142a25.85,25.85,0,0,0-22.19-11.7H129.64c-12,0-17.87,5.84-17.87,17.87v271c0,12,5.85,17.87,17.87,17.87h41.27c12,0,17.87-5.85,17.87-17.87Z"/><path class="cls-1" d="M477.28,336.53v99.21q0,18.76-18.76,18.76H417.25q-18.76,0-18.76-18.76v-271q0-18.76,18.76-18.76h173Q609,146,609,164.79v41.26q0,18.76-18.76,18.76h-113v38.77H559q18.76,0,18.76,18.76v35.43q0,18.76-18.76,18.76Z"/><path class="cls-1" d="M368.31,516.76a6.24,6.24,0,0,0-5.4,3.53,14,14,0,0,0-1.81,6.77,15.2,15.2,0,0,0,1.37,6.76,6.63,6.63,0,0,0,11.67,0,15.2,15.2,0,0,0,1.37-6.76,14.33,14.33,0,0,0-1.71-6.57C372.62,518.38,370.85,516.76,368.31,516.76Z"/><path class="cls-1" d="M294.73,516.76a6.24,6.24,0,0,0-5.4,3.53,14,14,0,0,0-1.81,6.77,15.2,15.2,0,0,0,1.37,6.76,6.18,6.18,0,0,0,5.84,3.48,6.12,6.12,0,0,0,5.83-3.48,15.2,15.2,0,0,0,1.37-6.76,14.33,14.33,0,0,0-1.71-6.57C299,518.38,297.28,516.76,294.73,516.76Z"/><path class="cls-1" d="M442.93,488.11H224.22q-34.29,0-34.29,34.28v9.18q0,34.29,34.29,34.29H442.93q34.29,0,34.28-34.29v-9.18Q477.21,488.1,442.93,488.11ZM271.4,543a2,2,0,0,1-2.21,2.21H246.1a2,2,0,0,1-2.21-2.21v-2.4a4.72,4.72,0,0,1,.74-2.75,6.08,6.08,0,0,1,1.47-1.52l3.58-3.09c2.79-2.35,5.73-4.9,8.28-7.2,1.28-1.13,2.31-2.11,3-2.85a4.8,4.8,0,0,0,1-1.61,3.23,3.23,0,0,0,0-2.06c-.44-1.13-1.81-2.31-4.22-2.31a5.41,5.41,0,0,0-3.43,1.33,14,14,0,0,0-2.6,2.79,2,2,0,0,1-3.08.54l-4-2.79c-2.5-1.62-.25-3.63,1-5.25a12.1,12.1,0,0,1,1.86-2,15.62,15.62,0,0,1,10.29-3.92,14.4,14.4,0,0,1,7.7,2.15,13,13,0,0,1,4.86,5.89,11.61,11.61,0,0,1,.63,6.91c-.54,2.35-2.5,4.56-4.41,6.47-1,1-2.35,2.16-3.82,3.38s-3.19,2.55-4.61,3.68h11a2,2,0,0,1,2.21,2.21Zm35.78-2.75a16.1,16.1,0,0,1-24.56.3,22.45,22.45,0,0,1-.1-26.48A15.62,15.62,0,0,1,294.73,508a15.45,15.45,0,0,1,12,5.73,21.13,21.13,0,0,1,4.56,13.34A21.47,21.47,0,0,1,307.18,540.24ZM345,543a2,2,0,0,1-2.2,2.21H319.68a2,2,0,0,1-2.21-2.21v-2.4a4.72,4.72,0,0,1,.73-2.75,6.3,6.3,0,0,1,1.48-1.52l3.57-3.09c2.8-2.35,5.74-4.9,8.29-7.2,1.27-1.13,2.3-2.11,3-2.85a5,5,0,0,0,1-1.61,3.3,3.3,0,0,0,0-2.06c-.44-1.13-1.81-2.31-4.22-2.31a5.41,5.41,0,0,0-3.43,1.33,14,14,0,0,0-2.6,2.79,2,2,0,0,1-3.09.54l-4-2.79c-2.5-1.62-.24-3.63,1-5.25a12.58,12.58,0,0,1,1.87-2,15.62,15.62,0,0,1,10.29-3.92,14.43,14.43,0,0,1,7.7,2.15,13,13,0,0,1,4.85,5.89,11.62,11.62,0,0,1,.64,6.91c-.54,2.35-2.5,4.56-4.41,6.47-1,1-2.35,2.16-3.83,3.38s-3.18,2.55-4.6,3.68h11a2,2,0,0,1,2.2,2.21Zm35.79-2.75a16.1,16.1,0,0,1-24.56.3,22.45,22.45,0,0,1-.1-26.48,15.33,15.33,0,0,1,24.17-.34,21.13,21.13,0,0,1,4.56,13.34A21.54,21.54,0,0,1,380.76,540.24Zm19.55,4.22a4.9,4.9,0,0,1-3.62,1.52,5,5,0,0,1-3.68-1.52,5.16,5.16,0,0,1,3.68-8.82,5.06,5.06,0,0,1,3.62,1.52,5.18,5.18,0,0,1,1.52,3.67A5.08,5.08,0,0,1,400.31,544.46ZM423.6,543a2,2,0,0,1-2.21,2.21h-4.85a2,2,0,0,1-2.21-2.21V520.05h-4.07c-1.91,0-2.45-1.18-1.32-2.7l5.49-7.11a3.24,3.24,0,0,1,2.7-1.32h4.26a2,2,0,0,1,2.21,2.2Z"/><polygon class="cls-1" points="189.93 531.39 61.28 531.39 58.7 530.32 33.66 505.28 32.59 502.68 32.83 454.45 40.15 454.49 39.91 501.19 62.8 524.08 189.93 524.08 189.93 531.39"/><polygon class="cls-1" points="443.85 147.39 436.53 147.33 436.76 120.91 413.88 98.03 62.68 98.03 62.68 90.71 415.4 90.71 417.99 91.78 443.02 116.82 444.09 119.44 443.85 147.39"/><path class="cls-1" d="M39.39,119a24.95,24.95,0,1,1,25-24.94A25,25,0,0,1,39.39,119Zm0-40.82A15.88,15.88,0,1,0,55.27,94.1,15.89,15.89,0,0,0,39.39,78.22Z"/><polygon class="cls-1" points="318.68 93.37 311.36 93.33 311.59 52.6 288.71 29.71 165.44 29.71 165.44 22.39 290.22 22.39 292.81 23.46 317.85 48.5 318.92 51.11 318.68 93.37"/><polygon class="cls-1" points="638.79 228.95 631.48 228.95 631.48 165.01 632.55 162.42 657.59 137.38 660.23 136.31 676.64 136.56 676.53 143.87 661.67 143.65 638.79 166.53 638.79 228.95"/><path class="cls-1" d="M742.81,164.67H697.2c-16,0-24.81-9.23-24.81-26V97.36c0-16.76,8.81-26,24.81-26h45.61c16,0,24.81,9.23,24.81,26v41.32C767.62,155.44,758.81,164.67,742.81,164.67ZM697.2,79.53c-11.51,0-16.65,5.5-16.65,17.83v41.32c0,12.33,5.14,17.83,16.65,17.83h45.61c11.51,0,16.64-5.5,16.64-17.83V97.36c0-12.33-5.13-17.83-16.64-17.83Z"/><rect class="cls-1" x="727.31" y="52.5" width="34.33" height="7.33" transform="translate(685.31 800.41) rotate(-89.77)"/><path class="cls-1" d="M744.76,40.35a20.18,20.18,0,1,1,20.18-20.18A20.2,20.2,0,0,1,744.76,40.35Zm0-33a12.84,12.84,0,1,0,12.85,12.84A12.85,12.85,0,0,0,744.76,7.33Z"/><rect class="cls-1" x="763.74" y="88.88" width="35.1" height="7.33"/><path class="cls-1" d="M817.67,112.94a20.17,20.17,0,1,1,20.17-20.17A20.19,20.19,0,0,1,817.67,112.94Zm0-33a12.84,12.84,0,1,0,12.84,12.84A12.85,12.85,0,0,0,817.67,79.93Z"/><rect class="cls-1" x="763.74" y="138.73" width="18.36" height="7.33"/><path class="cls-1" d="M800.93,162.79a20.17,20.17,0,1,1,20.17-20.17A20.2,20.2,0,0,1,800.93,162.79Zm0-33a12.84,12.84,0,1,0,12.84,12.84A12.85,12.85,0,0,0,800.93,129.78Z"/><rect class="cls-1" x="694.23" y="163.76" width="7.33" height="35.72"/><path class="cls-1" d="M697.68,238.48a20.18,20.18,0,1,1,20.17-20.17A20.2,20.2,0,0,1,697.68,238.48Zm0-33a12.84,12.84,0,1,0,12.84,12.84A12.85,12.85,0,0,0,697.68,205.47Z"/><path class="cls-1" d="M635.41,268.46a20.17,20.17,0,1,1,20.17-20.17A20.2,20.2,0,0,1,635.41,268.46Zm0-33a12.84,12.84,0,1,0,12.84,12.84A12.85,12.85,0,0,0,635.41,235.45Z"/><path class="cls-1" d="M740.74,331.33a20.17,20.17,0,1,1,20.17-20.17A20.19,20.19,0,0,1,740.74,331.33Zm0-33a12.84,12.84,0,1,0,12.84,12.84A12.85,12.85,0,0,0,740.74,298.32Z"/><path class="cls-1" d="M800.93,292.55a20.18,20.18,0,1,1,20.17-20.17A20.2,20.2,0,0,1,800.93,292.55Zm0-33a12.85,12.85,0,1,0,12.84,12.85A12.86,12.86,0,0,0,800.93,259.53Z"/><polygon class="cls-1" points="640.39 90.69 633.08 90.58 633.3 75.72 610.42 52.85 556.93 52.85 556.93 45.53 611.94 45.53 614.53 46.6 639.57 71.64 640.64 74.28 640.39 90.69"/><path class="cls-1" d="M537.59,69.63a20.17,20.17,0,1,1,20.18-20.17A20.2,20.2,0,0,1,537.59,69.63Zm0-33a12.84,12.84,0,1,0,12.85,12.84A12.85,12.85,0,0,0,537.59,36.62Z"/><path class="cls-1" d="M145.86,46.36A20.17,20.17,0,1,1,166,26.19,20.2,20.2,0,0,1,145.86,46.36Zm0-33A12.84,12.84,0,1,0,158.7,26.19,12.86,12.86,0,0,0,145.86,13.35Z"/><polygon class="cls-1" points="703 71.62 695.68 71.55 695.91 47.05 673.03 24.17 646.23 24.17 646.23 16.85 674.54 16.85 677.13 17.93 702.17 42.97 703.24 45.59 703 71.62"/><path class="cls-1" d="M627.69,41a20.18,20.18,0,1,1,20.17-20.18A20.2,20.2,0,0,1,627.69,41Zm0-33a12.85,12.85,0,1,0,12.84,12.84A12.86,12.86,0,0,0,627.69,7.94Z"/><rect class="cls-1" x="519.54" y="89.48" width="154.83" height="7.33"/><polygon class="cls-1" points="804.59 254.5 797.27 254.5 797.27 227.54 774.39 204.66 743.55 204.89 743.49 197.57 775.86 197.33 778.48 198.4 803.52 223.44 804.59 226.03 804.59 254.5"/><rect class="cls-1" x="737.35" y="163.59" width="7.33" height="128.29"/><path class="cls-1" d="M500.71,113.1a20.18,20.18,0,1,1,20.18-20.18A20.2,20.2,0,0,1,500.71,113.1Zm0-33a12.85,12.85,0,1,0,12.85,12.84A12.85,12.85,0,0,0,500.71,80.08Z"/><polygon class="cls-1" points="396.22 635.31 167.64 635.31 165.05 634.24 140.01 609.2 138.94 606.6 139.18 529.78 146.5 529.8 146.26 605.11 169.16 628 396.22 628 396.22 635.31"/><path class="cls-1" d="M419.51,656.88a25,25,0,1,1,24.94-25A25,25,0,0,1,419.51,656.88Zm0-40.83a15.88,15.88,0,1,0,15.88,15.88A15.89,15.89,0,0,0,419.51,616.05Z"/></g><g id="ROXO"><rect class="cls-2" x="642.09" y="315.41" width="63.43" height="201.25" rx="31.71"/><path class="cls-2" d="M788.44,380.81q-1.58-1.59-3.21-3.12c-19.5-18.43-51.54-10.9-61,14.21l-1.45,3.85c-5.36,14.27-1.21,30,9.61,40.74.06.06.11.12.17.17a83.38,83.38,0,1,1-117.55,0c.06-.05.11-.11.17-.17,10.81-10.75,15-26.47,9.6-40.74l-1.44-3.85c-9.44-25.12-41.5-32.65-61-14.2q-1.62,1.53-3.2,3.11a161.52,161.52,0,0,0,0,228.85c29.59,29.18,69.61,47.52,114.63,47.52,44.61,0,85-18.34,114.64-47.52a161.52,161.52,0,0,0,0-228.85Z"/><path class="cls-2" d="M734.76,148.2H705.25c-10.35,0-16-6-16-16.81V104.66c0-10.85,5.7-16.82,16-16.82h29.51c10.35,0,16,6,16,16.82v26.73C750.81,142.23,745.11,148.2,734.76,148.2ZM707.85,97.5c-6.14,0-8.88,2.93-8.88,9.51v22c0,6.58,2.74,9.51,8.88,9.51h24.31c6.14,0,8.88-2.93,8.88-9.51V107c0-6.58-2.74-9.51-8.88-9.51Z"/></g></g></svg>